<?xml version="1.0" standalone="no"?>
<!DOCTYPE svg PUBLIC "-//W3C//DTD SVG 1.1//EN" "http://www.w3.org/Graphics/SVG/1.1/DTD/svg11.dtd" >
<svg>
<metadata>
Created by FontForge 20110222 at Mon Feb 13 13:07:11 2012
 By www-data
Copyright (c) 2012 by Aleksandr Savenkov. All rights reserved.
</metadata>
<defs>
<font id="UpheavalPro-Regular" horiz-adv-x="600" >
  <font-face 
    font-family="Upheaval Pro"
    font-weight="400"
    font-stretch="normal"
    units-per-em="1000"
    panose-1="0 0 0 0 0 0 0 0 0 0"
    ascent="800"
    descent="-200"
    x-height="500"
    cap-height="500"
    bbox="-50 -150 900 750"
    underline-thickness="50"
    underline-position="-75"
    unicode-range="U+0020-2122"
  />
    <missing-glyph />
    <glyph glyph-name="space" unicode=" " horiz-adv-x="250" 
 />
    <glyph glyph-name="exclam" unicode="!" horiz-adv-x="250" 
d="M0 150h200v350h-200v-350zM0 0h200v100h-200v-100z" />
    <glyph glyph-name="quotedbl" unicode="&#x22;" horiz-adv-x="400" 
d="M200 400h150v100h-150v-100zM0 400h150v100h-150v-100z" />
    <glyph glyph-name="numbersign" unicode="#" 
d="M300 400h-50v100h-200v-100h-50v-100h50v-100h-50v-100h50v-100h200v100h50v-100h200v100h50v100h-50v100h50v100h-50v100h-200v-100zM250 200v100h50v-100h-50z" />
    <glyph glyph-name="dollar" unicode="$" 
d="M500 0v50h50v200h-50v50h-300v100h350v100h-200v50h-150v-50h-150v-50h-50v-200h50v-50h300v-100h-350v-100h200v-48h150v48h150z" />
    <glyph glyph-name="percent" unicode="%" horiz-adv-x="650" 
d="M450 150h-50v-100h50v-50h100v50h50v100h-50v50h-100v-50zM50 450h-50v-100h50v-50h100v50h50v100h-50v50h-100v-50zM400 450h-50v-50h-50v-50h-50v-50h-50v-50h-50v-50h-50v-50h-50v-50h-50v-100h200v50h50v50h50v50h50v50h50v50h50v50h50v50h50v50h50v100h-200v-50z
" />
    <glyph glyph-name="ampersand" unicode="&#x26;" 
d="M550 0v100h-350v100h150v100h-150v100h350v100h-200v50h-150v-50h-150v-50h-50v-400h50v-50h150v-48h150v48h200z" />
    <glyph glyph-name="quoteright" unicode="'" horiz-adv-x="250" 
d="M200 300v200h-200v-100h100v-100h100z" />
    <glyph glyph-name="quoteright" unicode="&#x2019;" horiz-adv-x="250" 
d="M200 300v200h-200v-100h100v-100h100z" />
    <glyph glyph-name="parenleft" unicode="(" horiz-adv-x="400" 
d="M200 400h150v100h-300v-50h-50v-400h50v-50h300v100h-150v300z" />
    <glyph glyph-name="parenright" unicode=")" horiz-adv-x="400" 
d="M150 100h-150v-100h300v50h50v400h-50v50h-300v-100h150v-300z" />
    <glyph glyph-name="asterisk" unicode="*" horiz-adv-x="500" 
d="M200 450h-50v-50h-50v50h-100v-100h50v-50h50v-50h-50v-100h100v50h50v50h50v-50h50v-50h100v100h-50v50h50v50h50v100h-100v-50h-50v50h-50v50h-50v-50z" />
    <glyph glyph-name="plus" unicode="+" 
d="M200 300h-200v-100h200v-100h150v100h200v100h-200v100h-150v-100z" />
    <glyph glyph-name="comma" unicode="," horiz-adv-x="200" 
d="M0 -100h150v200h-150v-200z" />
    <glyph glyph-name="hyphen" unicode="-" 
d="M0 200h550v100h-550v-100z" />
    <glyph glyph-name="period" unicode="." horiz-adv-x="200" 
d="M0 0h150v100h-150v-100z" />
    <glyph glyph-name="slash" unicode="/" horiz-adv-x="650" 
d="M400 450h-50v-50h-50v-50h-50v-50h-50v-50h-50v-50h-50v-50h-50v-50h-50v-100h200v50h50v50h50v50h50v50h50v50h50v50h50v50h50v50h50v100h-200v-50z" />
    <glyph glyph-name="zero" unicode="0" 
d="M500 50h50v400h-50v50h-450v-50h-50v-400h50v-50h450v50zM200 100v300h150v-300h-150z" />
    <glyph glyph-name="one" unicode="1" horiz-adv-x="250" 
d="M0 0h200v500h-200v-500z" />
    <glyph glyph-name="two" unicode="2" 
d="M500 200v50h50v200h-50v50h-500v-100h350v-100h-300v-50h-50v-250h550v100h-350v100h300z" />
    <glyph glyph-name="three" unicode="3" 
d="M200 300v-100h150v-100h-350v-100h500v50h50v150h-50v100h50v150h-50v50h-500v-100h350v-100h-150z" />
    <glyph glyph-name="four" unicode="4" 
d="M550 500h-200v-200h-150v200h-200v-250h50v-50h300v-200h200v500z" />
    <glyph glyph-name="five" unicode="5" 
d="M350 200v-100h-350v-100h500v50h50v200h-50v50h-300v100h350v100h-550v-250h50v-50h300z" />
    <glyph glyph-name="six" unicode="6" 
d="M500 0v50h50v200h-50v50h-300v100h350v100h-500v-50h-50v-400h50v-50h450zM350 200v-100h-150v100h150z" />
    <glyph glyph-name="seven" unicode="7" 
d="M0 500v-100h300v-50h-50v-50h-50v-50h-50v-50h-50v-50h-50v-50h-50v-100h200v50h50v50h50v50h50v50h50v50h50v50h50v50h50v150h-550z" />
    <glyph glyph-name="eight" unicode="8" 
d="M200 100v100h150v-100h-150zM200 300v100h150v-100h-150zM50 500v-50h-50v-150h50v-100h-50v-150h50v-50h450v50h50v150h-50v100h50v150h-50v50h-450z" />
    <glyph glyph-name="nine" unicode="9" 
d="M500 450v50h-450v-50h-50v-200h50v-50h300v-200h200v450h-50zM350 300h-150v100h150v-100z" />
    <glyph glyph-name="colon" unicode=":" horiz-adv-x="200" 
d="M0 0h150v100h-150v-100zM0 400h150v100h-150v-100z" />
    <glyph glyph-name="semicolon" unicode=";" horiz-adv-x="200" 
d="M0 -100h150v200h-150v-200zM0 400h150v100h-150v-100z" />
    <glyph glyph-name="less" unicode="&#x3c;" horiz-adv-x="450" 
d="M400 500h-200v-50h-50v-50h-50v-50h-50v-50h-50v-100h50v-50h50v-50h50v-50h50v-50h200v100h-50v50h-50v50h-50v100h50v50h50v50h50v100z" />
    <glyph glyph-name="equal" unicode="=" 
d="M0 100h550v100h-550v-100zM0 300h550v100h-550v-100z" />
    <glyph glyph-name="greater" unicode="&#x3e;" horiz-adv-x="450" 
d="M0 400h50v-50h50v-50h50v-100h-50v-50h-50v-50h-50v-100h200v50h50v50h50v50h50v50h50v100h-50v50h-50v50h-50v50h-50v50h-200v-100z" />
    <glyph glyph-name="question" unicode="?" 
d="M500 200v50h50v200h-50v50h-450v-50h-50v-150h200v100h150v-100h-100v-50h-50v-100h150v50h150zM200 0h150v100h-150v-100z" />
    <glyph glyph-name="at" unicode="@" horiz-adv-x="700" 
d="M400 350h-150v-200h350v50h50v250h-50v50h-550v-50h-50v-400h50v-50h550v50h50v50h-450v300h250v-200h-50v150zM350 300v-100h-50v100h50z" />
    <glyph glyph-name="A" unicode="A" 
d="M350 400v-100h-150v100h150zM200 0v200h150v-200h200v450h-50v50h-450v-50h-50v-450h200z" />
    <glyph glyph-name="B" unicode="B" 
d="M350 200v-100h-150v100h150zM350 400v-100h-150v100h150zM500 0v50h50v150h-50v100h50v150h-50v50h-500v-500h500z" />
    <glyph glyph-name="C" unicode="C" 
d="M200 400h150v-100h200v150h-50v50h-450v-50h-50v-400h50v-50h450v50h50v150h-200v-100h-150v300z" />
    <glyph glyph-name="D" unicode="D" 
d="M300 400v-50h50v-200h-50v-50h-100v300h100zM0 0h450v50h50v50h50v300h-50v50h-50v50h-450v-500z" />
    <glyph glyph-name="E" unicode="E" 
d="M200 300v100h350v100h-500v-50h-50v-400h50v-50h500v100h-350v100h150v100h-150z" />
    <glyph glyph-name="F" unicode="F" 
d="M350 300h-150v100h350v100h-500v-50h-50v-450h200v200h150v100z" />
    <glyph glyph-name="G" unicode="G" 
d="M500 0v50h50v200h-50v50h-250v-100h100v-100h-150v300h350v100h-500v-50h-50v-400h50v-50h450z" />
    <glyph glyph-name="H" unicode="H" 
d="M0 0h200v200h150v-200h200v500h-200v-200h-150v200h-200v-500z" />
    <glyph glyph-name="I" unicode="I" horiz-adv-x="550" 
d="M0 500v-100h150v-300h-150v-100h500v100h-150v300h150v100h-500z" />
    <glyph glyph-name="J" unicode="J" 
d="M200 200h-200v-150h50v-50h450v50h50v450h-200v-400h-150v100z" />
    <glyph glyph-name="K" unicode="K" 
d="M0 0h200v150h50v-50h50v-50h50v-50h200v100h-50v50h-50v50h-50v100h50v50h50v50h50v100h-200v-50h-50v-50h-50v-50h-50v150h-200v-500z" />
    <glyph glyph-name="L" unicode="L" 
d="M200 500h-200v-500h550v100h-350v400z" />
    <glyph glyph-name="M" unicode="M" horiz-adv-x="700" 
d="M350 200h50v50h50v-250h200v500h-200v-50h-50v-50h-50v-50h-50v50h-50v50h-50v50h-200v-500h200v250h50v-50h50v-50h50v50z" />
    <glyph glyph-name="N" unicode="N" 
d="M350 350h-50v50h-50v50h-50v50h-200v-500h200v250h50v-50h50v-50h50v-150h200v500h-200v-150z" />
    <glyph glyph-name="O" unicode="O" 
d="M500 50h50v400h-50v50h-450v-50h-50v-400h50v-50h450v50zM200 100v300h150v-300h-150z" />
    <glyph glyph-name="P" unicode="P" 
d="M350 400v-100h-150v100h150zM200 0v200h300v50h50v200h-50v50h-500v-500h200z" />
    <glyph glyph-name="Q" unicode="Q" 
d="M500 0v50h50v400h-50v50h-450v-50h-50v-400h50v-50h150v-98h150v98h150zM200 100v300h150v-300h-150z" />
    <glyph glyph-name="R" unicode="R" 
d="M350 200v-200h200v200h-50v100h50v150h-50v50h-500v-500h200v200h150zM350 400v-100h-150v100h150z" />
    <glyph glyph-name="S" unicode="S" 
d="M350 200v-100h-350v-100h500v50h50v200h-50v50h-300v100h350v100h-500v-50h-50v-200h50v-50h300z" />
    <glyph glyph-name="T" unicode="T" horiz-adv-x="550" 
d="M0 500v-100h150v-400h200v400h150v100h-500z" />
    <glyph glyph-name="U" unicode="U" 
d="M200 100v400h-200v-450h50v-50h450v50h50v450h-200v-400h-150z" />
    <glyph glyph-name="V" unicode="V" 
d="M350 500v-250h-50v-50h-50v-50h-50v350h-200v-500h350v50h50v50h50v50h50v50h50v300h-200z" />
    <glyph glyph-name="W" unicode="W" horiz-adv-x="700" 
d="M350 350h-50v-50h-50v-50h-50v250h-200v-500h200v50h50v50h50v50h50v-50h50v-50h50v-50h200v500h-200v-250h-50v50h-50v50z" />
    <glyph glyph-name="X" unicode="X" 
d="M250 400h-50v50h-50v50h-150v-150h50v-50h50v-100h-50v-50h-50v-150h150v50h50v50h50v50h50v-50h50v-50h50v-50h150v150h-50v50h-50v100h50v50h50v150h-150v-50h-50v-50h-50v-50h-50v50z" />
    <glyph glyph-name="Y" unicode="Y" horiz-adv-x="650" 
d="M400 500v-150h-50v-50h-100v50h-50v150h-200v-200h50v-50h50v-50h100v-200h200v200h100v50h50v50h50v200h-200z" />
    <glyph glyph-name="Z" unicode="Z" 
d="M0 500v-100h300v-50h-50v-50h-50v-50h-50v-50h-50v-50h-50v-50h-50v-100h550v100h-250v50h50v50h50v50h50v50h50v50h50v150h-550z" />
    <glyph glyph-name="bracketleft" unicode="[" horiz-adv-x="400" 
d="M200 400h150v100h-350v-500h350v100h-150v300z" />
    <glyph glyph-name="backslash" unicode="\" horiz-adv-x="650" 
d="M200 500h-200v-100h50v-50h50v-50h50v-50h50v-50h50v-50h50v-50h50v-50h50v-50h200v100h-50v50h-50v50h-50v50h-50v50h-50v50h-50v50h-50v50h-50v50z" />
    <glyph glyph-name="bracketright" unicode="]" horiz-adv-x="400" 
d="M150 100h-150v-100h350v500h-350v-100h150v-300z" />
    <glyph glyph-name="asciicircum" unicode="^" horiz-adv-x="500" 
d="M400 400h-50v50h-50v50h-150v-50h-50v-50h-50v-50h-50v-100h150v50h50v50h50v-50h50v-50h150v100h-50v50z" />
    <glyph glyph-name="underscore" unicode="_" 
d="M0 -148h550v100h-550v-100z" />
    <glyph glyph-name="quoteleft" unicode="&#x2018;" horiz-adv-x="250" 
d="M0 500v-200h200v100h-100v100h-100z" />
    <glyph glyph-name="a" unicode="a" 
d="M350 400v-100h-150v100h150zM200 0v200h150v-200h200v450h-50v50h-450v-50h-50v-450h200z" />
    <glyph glyph-name="b" unicode="b" 
d="M350 200v-100h-150v100h150zM350 400v-100h-150v100h150zM500 0v50h50v150h-50v100h50v150h-50v50h-500v-500h500z" />
    <glyph glyph-name="c" unicode="c" 
d="M200 400h150v-100h200v150h-50v50h-450v-50h-50v-400h50v-50h450v50h50v150h-200v-100h-150v300z" />
    <glyph glyph-name="d" unicode="d" 
d="M300 400v-50h50v-200h-50v-50h-100v300h100zM0 0h450v50h50v50h50v300h-50v50h-50v50h-450v-500z" />
    <glyph glyph-name="e" unicode="e" 
d="M200 300v100h350v100h-500v-50h-50v-400h50v-50h500v100h-350v100h150v100h-150z" />
    <glyph glyph-name="f" unicode="f" 
d="M350 300h-150v100h350v100h-500v-50h-50v-450h200v200h150v100z" />
    <glyph glyph-name="g" unicode="g" 
d="M500 0v50h50v200h-50v50h-250v-100h100v-100h-150v300h350v100h-500v-50h-50v-400h50v-50h450z" />
    <glyph glyph-name="h" unicode="h" 
d="M0 0h200v200h150v-200h200v500h-200v-200h-150v200h-200v-500z" />
    <glyph glyph-name="i" unicode="i" horiz-adv-x="550" 
d="M0 500v-100h150v-300h-150v-100h500v100h-150v300h150v100h-500z" />
    <glyph glyph-name="j" unicode="j" 
d="M200 200h-200v-150h50v-50h450v50h50v450h-200v-400h-150v100z" />
    <glyph glyph-name="k" unicode="k" 
d="M0 0h200v150h50v-50h50v-50h50v-50h200v100h-50v50h-50v50h-50v100h50v50h50v50h50v100h-200v-50h-50v-50h-50v-50h-50v150h-200v-500z" />
    <glyph glyph-name="l" unicode="l" 
d="M200 500h-200v-500h550v100h-350v400z" />
    <glyph glyph-name="m" unicode="m" horiz-adv-x="700" 
d="M350 200h50v50h50v-250h200v500h-200v-50h-50v-50h-50v-50h-50v50h-50v50h-50v50h-200v-500h200v250h50v-50h50v-50h50v50z" />
    <glyph glyph-name="n" unicode="n" 
d="M350 350h-50v50h-50v50h-50v50h-200v-500h200v250h50v-50h50v-50h50v-150h200v500h-200v-150z" />
    <glyph glyph-name="o" unicode="o" 
d="M500 50h50v400h-50v50h-450v-50h-50v-400h50v-50h450v50zM200 100v300h150v-300h-150z" />
    <glyph glyph-name="p" unicode="p" 
d="M350 400v-100h-150v100h150zM200 0v200h300v50h50v200h-50v50h-500v-500h200z" />
    <glyph glyph-name="q" unicode="q" 
d="M500 0v50h50v400h-50v50h-450v-50h-50v-400h50v-50h150v-98h150v98h150zM200 100v300h150v-300h-150z" />
    <glyph glyph-name="r" unicode="r" 
d="M350 200v-200h200v200h-50v100h50v150h-50v50h-500v-500h200v200h150zM350 400v-100h-150v100h150z" />
    <glyph glyph-name="s" unicode="s" 
d="M350 200v-100h-350v-100h500v50h50v200h-50v50h-300v100h350v100h-500v-50h-50v-200h50v-50h300z" />
    <glyph glyph-name="t" unicode="t" horiz-adv-x="550" 
d="M0 500v-100h150v-400h200v400h150v100h-500z" />
    <glyph glyph-name="u" unicode="u" 
d="M200 100v400h-200v-450h50v-50h450v50h50v450h-200v-400h-150z" />
    <glyph glyph-name="v" unicode="v" 
d="M350 500v-250h-50v-50h-50v-50h-50v350h-200v-500h350v50h50v50h50v50h50v50h50v300h-200z" />
    <glyph glyph-name="w" unicode="w" horiz-adv-x="700" 
d="M350 350h-50v-50h-50v-50h-50v250h-200v-500h200v50h50v50h50v50h50v-50h50v-50h50v-50h200v500h-200v-250h-50v50h-50v50z" />
    <glyph glyph-name="x" unicode="x" 
d="M250 400h-50v50h-50v50h-150v-150h50v-50h50v-100h-50v-50h-50v-150h150v50h50v50h50v50h50v-50h50v-50h50v-50h150v150h-50v50h-50v100h50v50h50v150h-150v-50h-50v-50h-50v-50h-50v50z" />
    <glyph glyph-name="y" unicode="y" horiz-adv-x="650" 
d="M400 500v-150h-50v-50h-100v50h-50v150h-200v-200h50v-50h50v-50h100v-200h200v200h100v50h50v50h50v200h-200z" />
    <glyph glyph-name="z" unicode="z" 
d="M0 500v-100h300v-50h-50v-50h-50v-50h-50v-50h-50v-50h-50v-50h-50v-100h550v100h-250v50h50v50h50v50h50v50h50v50h50v150h-550z" />
    <glyph glyph-name="braceleft" unicode="{" horiz-adv-x="450" 
d="M250 300v100h150v100h-300v-50h-50v-150h-50v-100h50v-150h50v-50h300v100h-150v100h-50v100h50z" />
    <glyph glyph-name="bar" unicode="|" horiz-adv-x="200" 
d="M0 -48h150v598h-150v-598z" />
    <glyph glyph-name="braceright" unicode="}" horiz-adv-x="450" 
d="M200 300v-100h-50v-100h-150v-100h300v50h50v150h50v100h-50v150h-50v50h-300v-100h150v-100h50z" />
    <glyph glyph-name="asciitilde" unicode="~" horiz-adv-x="750" 
d="M500 250h-50v50h-50v50h-50v50h-250v-50h-50v-50h-50v-200h200v150h50v-50h50v-50h50v-50h250v50h50v50h50v200h-200v-150z" />
    <glyph glyph-name="exclamdown" unicode="&#xa1;" horiz-adv-x="250" 
d="M0 400h200v100h-200v-100zM0 0h200v350h-200v-350z" />
    <glyph glyph-name="cent" unicode="&#xa2;" 
d="M200 500h-150v-50h-50v-400h50v-50h150v-100h150v100h150v50h50v150h-200v-100h-150v300h150v-100h200v150h-50v50h-150v100h-150v-100z" />
    <glyph glyph-name="sterling" unicode="&#xa3;" horiz-adv-x="650" 
d="M400 400v-50h50v-50h100v50h50v100h-50v50h-400v-50h-50v-50h-50v-100h-50v-100h50v-100h-50v-100h500v50h100v100h-200v-50h-150v100h50v100h-50v50h50v50h100z" />
    <glyph glyph-name="yen" unicode="&#xa5;" horiz-adv-x="650" 
d="M50 50h150v-50h200v50h150v100h-150v50h100v50h50v50h50v200h-200v-150h-50v-50h-100v50h-50v150h-200v-200h50v-50h50v-50h100v-50h-150v-100z" />
    <glyph glyph-name="florin" unicode="&#x192;" horiz-adv-x="450" 
d="M0 -100h200v50h50v250h50v100h-50v100h150v100h-300v-50h-50v-150h-50v-100h50v-250h-50v-50z" />
    <glyph glyph-name="section" unicode="&#xa7;" 
d="M50 150v-50h300v-100h-350v-100h500v50h50v400h-50v50h-300v100h350v100h-500v-50h-50v-400h50zM350 200h-150v100h150v-100z" />
    <glyph glyph-name="currency" unicode="&#xa4;" horiz-adv-x="500" 
d="M300 300v-100h-100v100h100zM100 100h50v-50h200v50h50v-100h100v100h-100v50h50v200h-50v50h100v100h-100v-100h-50v50h-200v-50h-50v100h-100v-100h100v-50h-50v-200h50v-50h-100v-100h100v100z" />
    <glyph glyph-name="quotedblleft" unicode="&#x201c;" horiz-adv-x="500" 
d="M250 500v-200h200v100h-100v100h-100zM0 500v-200h200v100h-100v100h-100z" />
    <glyph glyph-name="guillemotleft" unicode="&#xab;" horiz-adv-x="550" 
d="M400 50h100v100h-50v50h-50v100h50v50h50v100h-100v-50h-50v-50h-50v-50h-50v-100h50v-50h50v-50h50v-50zM150 50h100v100h-50v50h-50v100h50v50h50v100h-100v-50h-50v-50h-50v-50h-50v-100h50v-50h50v-50h50v-50z" />
    <glyph glyph-name="guilsinglleft" unicode="&#x2039;" horiz-adv-x="300" 
d="M150 50h100v100h-50v50h-50v100h50v50h50v100h-100v-50h-50v-50h-50v-50h-50v-100h50v-50h50v-50h50v-50z" />
    <glyph glyph-name="guilsinglright" unicode="&#x203a;" horiz-adv-x="300" 
d="M100 100h50v50h50v50h50v100h-50v50h-50v50h-50v50h-100v-100h50v-50h50v-100h-50v-50h-50v-100h100v50z" />
    <glyph glyph-name="endash" unicode="&#x2013;" horiz-adv-x="300" 
d="M0 200h200v100h-200v-100z" />
    <glyph glyph-name="dagger" unicode="&#x2020;" 
d="M0 300h200v-300h150v300h200v100h-200v100h-150v-100h-200v-100z" />
    <glyph glyph-name="daggerdbl" unicode="&#x2021;" 
d="M0 300h200v-100h-200v-100h200v-100h150v100h200v100h-200v100h200v100h-200v100h-150v-100h-200v-100z" />
    <glyph glyph-name="periodcentered" unicode="&#xb7;" horiz-adv-x="250" 
d="M0 150h200v200h-200v-200z" />
    <glyph glyph-name="paragraph" unicode="&#xb6;" horiz-adv-x="450" 
d="M50 500v-50h-50v-200h50v-50h50v-200h100v400h50v-400h100v400h50v100h-350z" />
    <glyph glyph-name="bullet" unicode="&#x2022;" horiz-adv-x="400" 
d="M300 350h-50v50h-50v50h-50v-50h-50v-50h-50v-50h-50v-100h50v-50h50v-50h50v-50h50v50h50v50h50v50h50v100h-50v50z" />
    <glyph glyph-name="quotesinglbase" unicode="&#x201a;" horiz-adv-x="200" 
d="M0 -98h150v198h-150v-198z" />
    <glyph glyph-name="quotedblbase" unicode="&#x201e;" horiz-adv-x="400" 
d="M200 -98h150v198h-150v-198zM0 -98h150v198h-150v-198z" />
    <glyph glyph-name="quotedblright" unicode="&#x201d;" horiz-adv-x="500" 
d="M200 300v200h-200v-100h100v-100h100zM450 300v200h-200v-100h100v-100h100z" />
    <glyph glyph-name="guillemotright" unicode="&#xbb;" horiz-adv-x="550" 
d="M350 100h50v50h50v50h50v100h-50v50h-50v50h-50v50h-100v-100h50v-50h50v-100h-50v-50h-50v-100h100v50zM100 100h50v50h50v50h50v100h-50v50h-50v50h-50v50h-100v-100h50v-50h50v-100h-50v-50h-50v-100h100v50z" />
    <glyph glyph-name="ellipsis" unicode="&#x2026;" horiz-adv-x="450" 
d="M300 0h100v100h-100v-100zM150 0h100v100h-100v-100zM0 0h100v100h-100v-100z" />
    <glyph glyph-name="perthousand" unicode="&#x2030;" horiz-adv-x="950" 
d="M800 100v-50h-50v50h50zM650 150v-150h250v150h-250zM500 100v-50h-50v50h50zM350 150v-150h250v150h-250zM150 450v-50h-50v50h50zM0 500v-150h250v150h-250zM400 450h-50v-50h-50v-50h-50v-50h-50v-50h-50v-50h-50v-50h-50v-50h-50v-100h200v50h50v50h50v50h50v50h50
v50h50v50h50v50h50v50h50v100h-200v-50z" />
    <glyph glyph-name="questiondown" unicode="&#xbf;" 
d="M50 300v-50h-50v-200h50v-50h450v50h50v150h-200v-100h-150v100h100v50h50v100h-150v-50h-150zM350 500h-150v-100h150v100z" />
    <glyph glyph-name="acute" unicode="&#xb4;" 
d="M200 650v-100h100v50h50v50h50v100h-100v-50h-50v-50h-50z" />
    <glyph glyph-name="circumflex" unicode="&#x2c6;" 
d="M100 600v-50h100v50h50v50h50v-50h50v-50h100v50h-50v50h-50v50h-50v50h-50v-50h-50v-50h-50v-50h-50z" />
    <glyph glyph-name="tilde" unicode="&#x2dc;" 
d="M200 550v100h50v-50h50v-50h100v50h50v150h-100v-100h-50v50h-50v50h-100v-50h-50v-150h100z" />
    <glyph glyph-name="macron" unicode="&#xaf;" 
d="M0 550h550v100h-550v-100z" />
    <glyph glyph-name="dieresis" unicode="&#xa8;" 
d="M350 600h150v150h-150v-150zM50 600h150v150h-150v-150z" />
    <glyph glyph-name="cedilla" unicode="&#xb8;" 
d="M200 -100h-50v-50h150v50h50v100h-150v-100z" />
    <glyph glyph-name="emdash" unicode="&#x2014;" 
d="M0 200h550v100h-550v-100z" />
    <glyph glyph-name="AE" unicode="&#xc6;" horiz-adv-x="700" 
d="M0 0h150v200h100v-200h400v100h-250v100h100v100h-100v100h250v100h-600v-50h-50v-450zM250 400v-100h-100v100h100z" />
    <glyph glyph-name="ordfeminine" unicode="&#xaa;" horiz-adv-x="350" 
d="M200 350v-50h-100v50h100zM0 250h300v250h-300v-50h200v-50h-200v-150z" />
    <glyph glyph-name="Oslash" unicode="&#xd8;" 
d="M50 500v-50h-50v-400h50v-50h-50v-100h100v50h50v50h350v50h50v400h-50v50h50v100h-100v-50h-50v-50h-350zM200 400h100v-50h-50v-100h-50v150zM350 100h-100v50h50v100h50v-150z" />
    <glyph glyph-name="OE" unicode="&#x152;" horiz-adv-x="700" 
d="M400 400h250v100h-600v-50h-50v-400h50v-50h600v100h-250v100h100v100h-100v100zM150 100v300h100v-300h-100z" />
    <glyph glyph-name="ordmasculine" unicode="&#xba;" horiz-adv-x="350" 
d="M0 500v-250h300v250h-300zM200 300h-100v150h100v-150z" />
    <glyph glyph-name="ae" unicode="&#xe6;" horiz-adv-x="700" 
d="M0 0h150v200h100v-200h400v100h-250v100h100v100h-100v100h250v100h-600v-50h-50v-450zM250 400v-100h-100v100h100z" />
    <glyph glyph-name="oslash" unicode="&#xf8;" 
d="M50 500v-50h-50v-400h50v-50h-50v-100h100v50h50v50h350v50h50v400h-50v50h50v100h-100v-50h-50v-50h-350zM200 400h100v-50h-50v-100h-50v150zM350 100h-100v50h50v100h50v-150z" />
    <glyph glyph-name="oe" unicode="&#x153;" horiz-adv-x="700" 
d="M400 400h250v100h-600v-50h-50v-400h50v-50h600v100h-250v100h100v100h-100v100zM150 100v300h100v-300h-100z" />
    <glyph glyph-name="germandbls" unicode="&#xdf;" 
d="M200 0v400h150v-100h-100v-100h100v-100h-100v-100h250v50h50v150h-50v100h50v150h-50v50h-450v-50h-50v-400h50v-50h150z" />
    <glyph glyph-name="onesuperior" unicode="&#xb9;" horiz-adv-x="150" 
d="M0 250h100v250h-100v-250z" />
    <glyph glyph-name="logicalnot" unicode="&#xac;" horiz-adv-x="400" 
d="M350 300h-350v-100h200v-100h150v200z" />
    <glyph glyph-name="mu" unicode="&#xb5;" 
d="M200 100v400h-200v-600h200v100h300v50h50v450h-200v-400h-150z" />
    <glyph glyph-name="trademark" unicode="&#x2122;" horiz-adv-x="750" 
d="M600 450h-50v-50h-50v50h-50v50h-100v-250h100v100h50v-50h50v50h50v-100h100v250h-100v-50zM300 400v100h-300v-100h100v-150h100v150h100z" />
    <glyph glyph-name="Eth" unicode="&#xd0;" 
d="M-50 200h50v-200h450v50h50v50h50v300h-50v50h-50v50h-450v-200h-50v-100zM200 400h100v-50h50v-200h-50v-50h-100v100h50v100h-50v100z" />
    <glyph glyph-name="onehalf" unicode="&#xbd;" horiz-adv-x="650" 
d="M150 500h-100v-50h-50v-50h50v-100h100v200zM500 100h100v100h-200v50h50v50h50v50h50v50h50v100h-200v-50h-50v-50h-50v-50h-50v-50h-50v-50h-50v-50h-50v-50h-50v-50h-50v-100h200v50h50v50h50v50h50v50h50v-50h100v-50h-100v-100h200v50h-100v50z" />
    <glyph glyph-name="plusminus" unicode="&#xb1;" 
d="M0 0h550v100h-550v-100zM200 400h-200v-100h200v-100h150v100h200v100h-200v100h-150v-100z" />
    <glyph glyph-name="Thorn" unicode="&#xde;" 
d="M350 300v-100h-150v100h150zM200 0v100h300v50h50v200h-50v50h-300v100h-200v-500h200z" />
    <glyph glyph-name="onequarter" unicode="&#xbc;" horiz-adv-x="650" 
d="M150 500h-100v-50h-50v-50h50v-100h100v200zM450 200h-50v50h50v50h50v50h50v50h50v100h-200v-50h-50v-50h-50v-50h-50v-50h-50v-50h-50v-50h-50v-50h-50v-50h-50v-100h200v50h50v50h50v50h50v50h50v-150h100v-50h100v200h-100v-100h-50v100z" />
    <glyph glyph-name="divide" unicode="&#xf7;" 
d="M200 0h150v150h-150v-150zM200 350h150v150h-150v-150zM0 200h550v100h-550v-100z" />
    <glyph glyph-name="brokenbar" unicode="&#xa6;" horiz-adv-x="200" 
d="M0 -50h150v250h-150v-250zM150 550h-150v-250h150v250z" />
    <glyph glyph-name="degree" unicode="&#xb0;" 
d="M100 550h350v200h-350v-200zM350 700v-100h-150v100h150z" />
    <glyph glyph-name="thorn" unicode="&#xfe;" 
d="M350 350v-200h-150v200h150zM200 -100v150h300v50h50v300h-50v50h-300v150h-200v-700h200z" />
    <glyph glyph-name="threequarters" unicode="&#xbe;" horiz-adv-x="650" 
d="M450 200h-50v50h50v50h50v50h50v50h50v100h-200v-50h-50v-50h-50v-50h-50v-50h-50v200h-200v-50h50v-50h50v-50h-100v-50h200v-50h-50v-50h-50v-50h-50v-50h-50v-100h200v50h50v50h50v50h50v50h50v-150h100v-50h100v200h-100v-100h-50v100z" />
    <glyph glyph-name="twosuperior" unicode="&#xb2;" horiz-adv-x="350" 
d="M0 400v-150h300v50h-200v50h200v150h-300v-50h200v-50h-200z" />
    <glyph glyph-name="registered" unicode="&#xae;" horiz-adv-x="750" 
d="M350 300h50v-50h-50v50zM450 250v100h-200v-200h100v50h50v-50h50v50h-50v50h50zM200 100v300h300v-300h-300zM700 450h-50v50h-600v-50h-50v-400h50v-50h600v50h50v400z" />
    <glyph glyph-name="eth" unicode="&#xf0;" 
d="M-50 200h50v-200h450v50h50v50h50v300h-50v50h-50v50h-450v-200h-50v-100zM200 400h100v-50h50v-200h-50v-50h-100v100h50v100h-50v100z" />
    <glyph glyph-name="multiply" unicode="&#xd7;" horiz-adv-x="450" 
d="M150 400h-50v50h-100v-100h50v-50h50v-100h-50v-50h-50v-100h100v50h50v50h100v-50h50v-50h100v100h-50v50h-50v100h50v50h50v100h-100v-50h-50v-50h-100v50z" />
    <glyph glyph-name="threesuperior" unicode="&#xb3;" horiz-adv-x="350" 
d="M0 500v-50h200v-50h-200v-50h200v-50h-200v-50h300v250h-300z" />
    <glyph glyph-name="copyright" unicode="&#xa9;" horiz-adv-x="750" 
d="M250 200h50v-50h150v50h-100v100h100v50h-150v-50h-50v-100zM200 100v300h300v-300h-300zM700 450h-50v50h-600v-50h-50v-400h50v-50h600v50h50v400z" />
    <glyph glyph-name="Aacute" unicode="&#xc1;" 
d="M0 0v450h50v50h450v-50h50v-450h-200v200h-150v-200h-200zM200 400v-100h150v100h-150zM200 650v-100h100v50h50v50h50v100h-100v-50h-50v-50h-50z" />
    <glyph glyph-name="Acircumflex" unicode="&#xc2;" 
d="M0 0v450h50v50h450v-50h50v-450h-200v200h-150v-200h-200zM200 400v-100h150v100h-150zM100 600v-50h100v50h50v50h50v-50h50v-50h100v50h-50v50h-50v50h-50v50h-50v-50h-50v-50h-50v-50h-50z" />
    <glyph glyph-name="Adieresis" unicode="&#xc4;" 
d="M350 600h150v150h-150v-150zM50 600h150v150h-150v-150zM350 400v-100h-150v100h150zM200 0v200h150v-200h200v450h-50v50h-450v-50h-50v-450h200z" />
    <glyph glyph-name="Agrave" unicode="&#xc0;" 
d="M300 650v50h-50v50h-100v-100h50v-50h50v-50h100v100h-50zM350 400v-100h-150v100h150zM200 0v200h150v-200h200v450h-50v50h-450v-50h-50v-450h200z" />
    <glyph glyph-name="Aring" unicode="&#xc5;" 
d="M100 550h350v200h-350v-200zM350 700v-100h-150v100h150zM350 400v-100h-150v100h150zM200 0v200h150v-200h200v450h-50v50h-450v-50h-50v-450h200z" />
    <glyph glyph-name="Atilde" unicode="&#xc3;" 
d="M200 550v100h50v-50h50v-50h100v50h50v150h-100v-100h-50v50h-50v50h-100v-50h-50v-150h100zM350 400v-100h-150v100h150zM200 0v200h150v-200h200v450h-50v50h-450v-50h-50v-450h200z" />
    <glyph glyph-name="Ccedilla" unicode="&#xc7;" 
d="M150 -150h150v50h50v100h150v50h50v150h-200v-100h-150v300h150v-100h200v150h-50v50h-450v-50h-50v-400h50v-50h150v-100h-50v-50z" />
    <glyph glyph-name="Eacute" unicode="&#xc9;" 
d="M350 300v-100h-150v-100h350v-100h-500v50h-50v400h50v50h500v-100h-350v-100h150zM200 650v-100h100v50h50v50h50v100h-100v-50h-50v-50h-50z" />
    <glyph glyph-name="Ecircumflex" unicode="&#xca;" 
d="M350 300v-100h-150v-100h350v-100h-500v50h-50v400h50v50h500v-100h-350v-100h150zM100 600v-50h100v50h50v50h50v-50h50v-50h100v50h-50v50h-50v50h-50v50h-50v-50h-50v-50h-50v-50h-50z" />
    <glyph glyph-name="Edieresis" unicode="&#xcb;" 
d="M350 600h150v150h-150v-150zM50 600h150v150h-150v-150zM200 300v100h350v100h-500v-50h-50v-400h50v-50h500v100h-350v100h150v100h-150z" />
    <glyph glyph-name="Egrave" unicode="&#xc8;" 
d="M300 650v50h-50v50h-100v-100h50v-50h50v-50h100v100h-50zM200 300v100h350v100h-500v-50h-50v-400h50v-50h500v100h-350v100h150v100h-150z" />
    <glyph glyph-name="Iacute" unicode="&#xcd;" horiz-adv-x="550" 
d="M500 500v-100h-150v-300h150v-100h-500v100h150v300h-150v100h500zM150 650v-100h100v50h50v50h50v100h-100v-50h-50v-50h-50z" />
    <glyph glyph-name="Icircumflex" unicode="&#xce;" horiz-adv-x="550" 
d="M500 500v-100h-150v-300h150v-100h-500v100h150v300h-150v100h500zM50 600v-50h100v50h50v50h100v-50h50v-50h100v50h-50v50h-50v50h-50v50h-100v-50h-50v-50h-50v-50h-50z" />
    <glyph glyph-name="Idieresis" unicode="&#xcf;" horiz-adv-x="550" 
d="M300 600h150v150h-150v-150zM50 600h150v150h-150v-150zM0 500v-100h150v-300h-150v-100h500v100h-150v300h150v100h-500z" />
    <glyph glyph-name="Igrave" unicode="&#xcc;" horiz-adv-x="550" 
d="M300 650v50h-50v50h-100v-100h50v-50h50v-50h100v100h-50zM0 500v-100h150v-300h-150v-100h500v100h-150v300h150v100h-500z" />
    <glyph glyph-name="Ntilde" unicode="&#xd1;" 
d="M200 550v100h50v-50h50v-50h100v50h50v150h-100v-100h-50v50h-50v50h-100v-50h-50v-150h100zM350 350h-50v50h-50v50h-50v50h-200v-500h200v250h50v-50h50v-50h50v-150h200v500h-200v-150z" />
    <glyph glyph-name="Oacute" unicode="&#xd3;" 
d="M350 100v300h-150v-300h150zM500 0h-450v50h-50v400h50v50h450v-50h50v-400h-50v-50zM200 650v-100h100v50h50v50h50v100h-100v-50h-50v-50h-50z" />
    <glyph glyph-name="Ocircumflex" unicode="&#xd4;" 
d="M350 100v300h-150v-300h150zM500 0h-450v50h-50v400h50v50h450v-50h50v-400h-50v-50zM100 600v-50h100v50h50v50h50v-50h50v-50h100v50h-50v50h-50v50h-50v50h-50v-50h-50v-50h-50v-50h-50z" />
    <glyph glyph-name="Odieresis" unicode="&#xd6;" 
d="M350 600h150v150h-150v-150zM50 600h150v150h-150v-150zM500 50h50v400h-50v50h-450v-50h-50v-400h50v-50h450v50zM200 100v300h150v-300h-150z" />
    <glyph glyph-name="Ograve" unicode="&#xd2;" 
d="M300 650v50h-50v50h-100v-100h50v-50h50v-50h100v100h-50zM500 50h50v400h-50v50h-450v-50h-50v-400h50v-50h450v50zM200 100v300h150v-300h-150z" />
    <glyph glyph-name="Otilde" unicode="&#xd5;" 
d="M200 550v100h50v-50h50v-50h100v50h50v150h-100v-100h-50v50h-50v50h-100v-50h-50v-150h100zM500 50h50v400h-50v50h-450v-50h-50v-400h50v-50h450v50zM200 100v300h150v-300h-150z" />
    <glyph glyph-name="Scaron" unicode="&#x160;" 
d="M50 200v50h-50v200h50v50h500v-100h-350v-100h300v-50h50v-200h-50v-50h-500v100h350v100h-300zM450 700v50h-100v-50h-50v-50h-50v50h-50v50h-100v-50h50v-50h50v-50h50v-50h50v50h50v50h50v50h50z" />
    <glyph glyph-name="Uacute" unicode="&#xda;" 
d="M350 100v400h200v-450h-50v-50h-450v50h-50v450h200v-400h150zM200 650v-100h100v50h50v50h50v100h-100v-50h-50v-50h-50z" />
    <glyph glyph-name="Ucircumflex" unicode="&#xdb;" 
d="M350 100v400h200v-450h-50v-50h-450v50h-50v450h200v-400h150zM100 600v-50h100v50h50v50h50v-50h50v-50h100v50h-50v50h-50v50h-50v50h-50v-50h-50v-50h-50v-50h-50z" />
    <glyph glyph-name="Udieresis" unicode="&#xdc;" 
d="M350 600h150v150h-150v-150zM50 600h150v150h-150v-150zM200 100v400h-200v-450h50v-50h450v50h50v450h-200v-400h-150z" />
    <glyph glyph-name="Ugrave" unicode="&#xd9;" 
d="M300 650v50h-50v50h-100v-100h50v-50h50v-50h100v100h-50zM200 100v400h-200v-450h50v-50h450v50h50v450h-200v-400h-150z" />
    <glyph glyph-name="Yacute" unicode="&#xdd;" horiz-adv-x="650" 
d="M600 500v-200h-50v-50h-50v-50h-100v-200h-200v200h-100v50h-50v50h-50v200h200v-150h50v-50h100v50h50v150h200zM200 650v-100h100v50h50v50h50v100h-100v-50h-50v-50h-50z" />
    <glyph glyph-name="Ydieresis" unicode="&#xff;" horiz-adv-x="650" 
d="M350 600h150v150h-150v-150zM100 600h150v150h-150v-150zM400 500v-150h-50v-50h-100v50h-50v150h-200v-200h50v-50h50v-50h100v-200h200v200h100v50h50v50h50v200h-200z" />
    <glyph glyph-name="Ydieresis" unicode="&#x178;" horiz-adv-x="650" 
d="M350 600h150v150h-150v-150zM100 600h150v150h-150v-150zM400 500v-150h-50v-50h-100v50h-50v150h-200v-200h50v-50h50v-50h100v-200h200v200h100v50h50v50h50v200h-200z" />
    <glyph glyph-name="Zcaron" unicode="&#x17d;" 
d="M0 500v-100h300v-50h-50v-50h-50v-50h-50v-50h-50v-50h-50v-50h-50v-100h550v100h-250v50h50v50h50v50h50v50h50v50h50v150h-550zM450 700v50h-100v-50h-50v-50h-50v50h-50v50h-100v-50h50v-50h50v-50h50v-50h50v50h50v50h50v50h50z" />
    <glyph glyph-name="aacute" unicode="&#xe1;" 
d="M0 0v450h50v50h450v-50h50v-450h-200v200h-150v-200h-200zM200 400v-100h150v100h-150zM200 650v-100h100v50h50v50h50v100h-100v-50h-50v-50h-50z" />
    <glyph glyph-name="acircumflex" unicode="&#xe2;" 
d="M0 0v450h50v50h450v-50h50v-450h-200v200h-150v-200h-200zM200 400v-100h150v100h-150zM100 600v-50h100v50h50v50h50v-50h50v-50h100v50h-50v50h-50v50h-50v50h-50v-50h-50v-50h-50v-50h-50z" />
    <glyph glyph-name="adieresis" unicode="&#xe4;" 
d="M350 600h150v150h-150v-150zM50 600h150v150h-150v-150zM350 400v-100h-150v100h150zM200 0v200h150v-200h200v450h-50v50h-450v-50h-50v-450h200z" />
    <glyph glyph-name="agrave" unicode="&#xe0;" 
d="M300 650v50h-50v50h-100v-100h50v-50h50v-50h100v100h-50zM350 400v-100h-150v100h150zM200 0v200h150v-200h200v450h-50v50h-450v-50h-50v-450h200z" />
    <glyph glyph-name="aring" unicode="&#xe5;" 
d="M100 550h350v200h-350v-200zM350 700v-100h-150v100h150zM350 400v-100h-150v100h150zM200 0v200h150v-200h200v450h-50v50h-450v-50h-50v-450h200z" />
    <glyph glyph-name="atilde" unicode="&#xe3;" 
d="M200 550v100h50v-50h50v-50h100v50h50v150h-100v-100h-50v50h-50v50h-100v-50h-50v-150h100zM350 400v-100h-150v100h150zM200 0v200h150v-200h200v450h-50v50h-450v-50h-50v-450h200z" />
    <glyph glyph-name="ccedilla" unicode="&#xe7;" 
d="M150 -150h150v50h50v100h150v50h50v150h-200v-100h-150v300h150v-100h200v150h-50v50h-450v-50h-50v-400h50v-50h150v-100h-50v-50z" />
    <glyph glyph-name="eacute" unicode="&#xe9;" 
d="M350 300v-100h-150v-100h350v-100h-500v50h-50v400h50v50h500v-100h-350v-100h150zM200 650v-100h100v50h50v50h50v100h-100v-50h-50v-50h-50z" />
    <glyph glyph-name="ecircumflex" unicode="&#xea;" 
d="M350 300v-100h-150v-100h350v-100h-500v50h-50v400h50v50h500v-100h-350v-100h150zM100 600v-50h100v50h50v50h50v-50h50v-50h100v50h-50v50h-50v50h-50v50h-50v-50h-50v-50h-50v-50h-50z" />
    <glyph glyph-name="edieresis" unicode="&#xeb;" 
d="M350 600h150v150h-150v-150zM50 600h150v150h-150v-150zM200 300v100h350v100h-500v-50h-50v-400h50v-50h500v100h-350v100h150v100h-150z" />
    <glyph glyph-name="egrave" unicode="&#xe8;" 
d="M300 650v50h-50v50h-100v-100h50v-50h50v-50h100v100h-50zM200 300v100h350v100h-500v-50h-50v-400h50v-50h500v100h-350v100h150v100h-150z" />
    <glyph glyph-name="iacute" unicode="&#xed;" horiz-adv-x="550" 
d="M500 500v-100h-150v-300h150v-100h-500v100h150v300h-150v100h500zM150 650v-100h100v50h50v50h50v100h-100v-50h-50v-50h-50z" />
    <glyph glyph-name="icircumflex" unicode="&#xee;" horiz-adv-x="550" 
d="M500 500v-100h-150v-300h150v-100h-500v100h150v300h-150v100h500zM50 600v-50h100v50h50v50h100v-50h50v-50h100v50h-50v50h-50v50h-50v50h-100v-50h-50v-50h-50v-50h-50z" />
    <glyph glyph-name="idieresis" unicode="&#xef;" horiz-adv-x="550" 
d="M300 600h150v150h-150v-150zM50 600h150v150h-150v-150zM0 500v-100h150v-300h-150v-100h500v100h-150v300h150v100h-500z" />
    <glyph glyph-name="igrave" unicode="&#xec;" horiz-adv-x="550" 
d="M300 650v50h-50v50h-100v-100h50v-50h50v-50h100v100h-50zM0 500v-100h150v-300h-150v-100h500v100h-150v300h150v100h-500z" />
    <glyph glyph-name="ntilde" unicode="&#xf1;" 
d="M200 550v100h50v-50h50v-50h100v50h50v150h-100v-100h-50v50h-50v50h-100v-50h-50v-150h100zM350 350h-50v50h-50v50h-50v50h-200v-500h200v250h50v-50h50v-50h50v-150h200v500h-200v-150z" />
    <glyph glyph-name="oacute" unicode="&#xf3;" 
d="M350 100v300h-150v-300h150zM500 0h-450v50h-50v400h50v50h450v-50h50v-400h-50v-50zM200 650v-100h100v50h50v50h50v100h-100v-50h-50v-50h-50z" />
    <glyph glyph-name="ocircumflex" unicode="&#xf4;" 
d="M350 100v300h-150v-300h150zM500 0h-450v50h-50v400h50v50h450v-50h50v-400h-50v-50zM100 600v-50h100v50h50v50h50v-50h50v-50h100v50h-50v50h-50v50h-50v50h-50v-50h-50v-50h-50v-50h-50z" />
    <glyph glyph-name="odieresis" unicode="&#xf6;" 
d="M350 600h150v150h-150v-150zM50 600h150v150h-150v-150zM500 50h50v400h-50v50h-450v-50h-50v-400h50v-50h450v50zM200 100v300h150v-300h-150z" />
    <glyph glyph-name="ograve" unicode="&#xf2;" 
d="M300 650v50h-50v50h-100v-100h50v-50h50v-50h100v100h-50zM500 50h50v400h-50v50h-450v-50h-50v-400h50v-50h450v50zM200 100v300h150v-300h-150z" />
    <glyph glyph-name="otilde" unicode="&#xf5;" 
d="M200 550v100h50v-50h50v-50h100v50h50v150h-100v-100h-50v50h-50v50h-100v-50h-50v-150h100zM500 50h50v400h-50v50h-450v-50h-50v-400h50v-50h450v50zM200 100v300h150v-300h-150z" />
    <glyph glyph-name="scaron" unicode="&#x161;" 
d="M50 200v50h-50v200h50v50h500v-100h-350v-100h300v-50h50v-200h-50v-50h-500v100h350v100h-300zM450 700v50h-100v-50h-50v-50h-50v50h-50v50h-100v-50h50v-50h50v-50h50v-50h50v50h50v50h50v50h50z" />
    <glyph glyph-name="uacute" unicode="&#xfa;" 
d="M350 100v400h200v-450h-50v-50h-450v50h-50v450h200v-400h150zM200 650v-100h100v50h50v50h50v100h-100v-50h-50v-50h-50z" />
    <glyph glyph-name="ucircumflex" unicode="&#xfb;" 
d="M350 100v400h200v-450h-50v-50h-450v50h-50v450h200v-400h150zM100 600v-50h100v50h50v50h50v-50h50v-50h100v50h-50v50h-50v50h-50v50h-50v-50h-50v-50h-50v-50h-50z" />
    <glyph glyph-name="udieresis" unicode="&#xfc;" 
d="M350 600h150v150h-150v-150zM50 600h150v150h-150v-150zM200 100v400h-200v-450h50v-50h450v50h50v450h-200v-400h-150z" />
    <glyph glyph-name="ugrave" unicode="&#xf9;" 
d="M300 650v50h-50v50h-100v-100h50v-50h50v-50h100v100h-50zM200 100v400h-200v-450h50v-50h450v50h50v450h-200v-400h-150z" />
    <glyph glyph-name="yacute" unicode="&#xfd;" horiz-adv-x="650" 
d="M600 500v-200h-50v-50h-50v-50h-100v-200h-200v200h-100v50h-50v50h-50v200h200v-150h50v-50h100v50h50v150h200zM200 650v-100h100v50h50v50h50v100h-100v-50h-50v-50h-50z" />
    <glyph glyph-name="zcaron" unicode="&#x17e;" 
d="M0 500v-100h300v-50h-50v-50h-50v-50h-50v-50h-50v-50h-50v-50h-50v-100h550v100h-250v50h50v50h50v50h50v50h50v50h50v150h-550zM450 700v50h-100v-50h-50v-50h-50v50h-50v50h-100v-50h50v-50h50v-50h50v-50h50v50h50v50h50v50h50z" />
    <glyph glyph-name="Euro" unicode="&#x20ac;" 
d="M200 400h150v-100h-150v100zM550 300v150h-50v50h-450v-50h-50v-400h50v-50h450v50h50v150h-200v100h200zM350 100h-150v100h150v-100z" />
    <glyph glyph-name="sfthyphen" unicode="&#xad;" horiz-adv-x="250" 
d="M0 200h200v100h-200v-100z" />
    <glyph glyph-name="grave" unicode="`" 
d="M300 650v50h-50v50h-100v-100h50v-50h50v-50h100v100h-50z" />
    <glyph glyph-name="Ebreve" unicode="&#x114;" 
d="M100 600h50v-50h250v50h50v100h-100v-50h-150v50h-100v-100zM200 300v100h350v100h-500v-50h-50v-400h50v-50h500v100h-350v100h150v100h-150z" />
    <glyph glyph-name="kgreenlandic" unicode="&#x138;" 
d="M0 0h200v150h50v-50h50v-50h50v-50h200v100h-50v50h-50v50h-50v100h50v50h50v50h50v100h-200v-50h-50v-50h-50v-50h-50v150h-200v-500z" />
    <glyph glyph-name="Lacute" unicode="&#x139;" 
d="M200 100h350v-100h-550v500h200v-400zM200 650v-100h100v50h50v50h50v100h-100v-50h-50v-50h-50z" />
    <glyph glyph-name="tcaron" unicode="&#x165;" horiz-adv-x="550" 
d="M500 500v-100h-150v-400h-200v400h-150v100h500zM450 700v50h-100v-50h-50v-50h-100v50h-50v50h-100v-50h50v-50h50v-50h50v-50h100v50h50v50h50v50h50z" />
    <glyph glyph-name="Oslashacute" unicode="&#x1fe;" 
d="M350 250h-50v-100h-50v-50h100v150zM200 250h50v100h50v50h-100v-150zM400 500v50h50v50h100v-100h-50v-50h50v-400h-50v-50h-350v-50h-50v-50h-100v100h50v50h-50v400h50v50h350zM200 650v-100h100v50h50v50h50v100h-100v-50h-50v-50h-50z" />
    <glyph glyph-name="uni1F1D" unicode="&#x1f1d;" 
d="M200 300v100h350v100h-500v-50h-50v-400h50v-50h500v100h-350v100h150v100h-150zM100 700v-150h100v50h50v100h-150zM300 650v-100h100v50h50v50h50v100h-100v-50h-50v-50h-50z" />
    <glyph glyph-name="uni1F28" unicode="&#x1f28;" 
d="M200 700v-100h50v-50h100v150h-150zM0 500h200v-200h150v200h200v-500h-200v200h-150v-200h-200v500z" />
    <glyph glyph-name="uni1F49" unicode="&#x1f49;" 
d="M500 50h50v400h-50v50h-450v-50h-50v-400h50v-50h450v50zM200 100v300h150v-300h-150zM200 700v-150h100v50h50v100h-150z" />
    <glyph glyph-name="uni1F4A" unicode="&#x1f4a;" 
d="M500 50h50v400h-50v50h-450v-50h-50v-400h50v-50h450v50zM200 100v300h150v-300h-150zM250 700v-150h-100v50h-50v100h150zM450 650v50h-50v50h-100v-100h50v-50h50v-50h100v100h-50z" />
    <glyph glyph-name="uni1F4B" unicode="&#x1f4b;" 
d="M450 650v50h-50v50h-100v-100h50v-50h50v-50h100v100h-50zM250 700v-100h-50v-50h-100v150h150zM350 100v300h-150v-300h150zM500 0h-450v50h-50v400h50v50h450v-50h50v-400h-50v-50z" />
    <glyph glyph-name="uni1F4C" unicode="&#x1f4c;" 
d="M300 650v-100h100v50h50v50h50v100h-100v-50h-50v-50h-50zM100 700v-100h50v-50h100v150h-150zM350 100v300h-150v-300h150zM500 0h-450v50h-50v400h50v50h450v-50h50v-400h-50v-50z" />
    <glyph glyph-name="uni1F4D" unicode="&#x1f4d;" 
d="M500 50h50v400h-50v50h-450v-50h-50v-400h50v-50h450v50zM200 100v300h150v-300h-150zM100 700v-150h100v50h50v100h-150zM300 650v-100h100v50h50v50h50v100h-100v-50h-50v-50h-50z" />
    <glyph glyph-name="uni1F59" unicode="&#x1f59;" horiz-adv-x="650" 
d="M450 500v-50h-50v-50h-50v-50h-100v50h-50v50h-50v50h-150v-150h50v-50h50v-50h50v-50h50v-200h200v200h50v50h50v50h50v50h50v150h-150zM200 700v-150h150v50h50v100h-200z" />
    <glyph glyph-name="Cheabkhasiancyrillic" unicode="&#x4bc;" 
d="M350 400v-100h-150v100h150zM200 100v100h350v250h-50v50h-450v-50h-50v-400h50v-50h500v100h-350z" />
    <glyph glyph-name="adieresiscyrillic" unicode="&#x4d3;" 
d="M350 400v-100h-150v100h150zM200 0v200h150v-200h200v450h-50v50h-450v-50h-50v-450h200zM50 750h150v-150h-150v150zM350 750h150v-150h-150v150z" />
  </font>
</defs>
</svg>
